<svg xmlns="http://www.w3.org/2000/svg" fill="none" viewBox="0 0 48 48" id="Ai-Network-Spark--Streamline-Plump">
  <desc>
    Ai Network Spark Streamline Icon: https://streamlinehq.com
  </desc>
  <g id="ai-network-spark--globe-internet-world-artificial-intelligence-ai">
    <path id="Star 12" fill="#ffffff" d="M36.029 2.32233c0.1578 -0.44297 0.7842 -0.44297 0.942 0l0.3753 1.05364c1.2096 3.39591 3.8818 6.0681 7.2777 7.27773l1.0537 0.3753c0.4429 0.1578 0.4429 0.7842 0 0.942l-1.0537 0.3753c-3.3959 1.2096 -6.0681 3.8818 -7.2777 7.2777l-0.3753 1.0537c-0.1578 0.4429 -0.7842 0.4429 -0.942 0l-0.3753 -1.0537c-1.2096 -3.3959 -3.8818 -6.0681 -7.2777 -7.2777l-1.0537 -0.3753c-0.4429 -0.1578 -0.4429 -0.7842 0 -0.942l1.0537 -0.3753c3.3959 -1.20963 6.0681 -3.88183 7.2777 -7.27774z" stroke-width="3"></path>
    <path id="Subtract" fill="#9cfa8f" fill-rule="evenodd" d="m25.961 6.3922 -0.5161 0.28231c-3.8145 2.08621 -3.8146 7.56469 0 9.65089l3.6416 1.9917c0.2517 0.1377 0.4587 0.3446 0.5963 0.5963l1.9917 3.6417c2.0862 3.8145 7.5647 3.8145 9.6509 0l0.2824 -0.5163C41.865 23.3192 42 24.6438 42 26c0 11.0457 -8.9543 20 -20 20S2 37.0457 2 26 10.9543 6 22 6c1.3561 0 2.6807 0.13497 3.961 0.3922" clip-rule="evenodd" stroke-width="3"></path>
    <path id="Vector 144" stroke="#4cad22" stroke-linecap="round" d="M3.42871 32.667H40.5716" stroke-width="3"></path>
    <path id="Ellipse 18" stroke="#4cad22" stroke-linecap="round" stroke-linejoin="round" d="M24.5 6.15473C23.681 6.05261 22.8467 6 22 6 10.9543 6 2 14.9543 2 26s8.9543 20 20 20 20 -8.9543 20 -20c0 -0.675 -0.0334 -1.3422 -0.0988 -2 -0.0166 -0.1673 -0.0352 -0.334 -0.0559 -0.5" stroke-width="3"></path>
    <path id="Vector 145" stroke="#4cad22" stroke-linecap="round" d="m3.42871 19.333 22.07139 0" stroke-width="3"></path>
    <path id="Ellipse 19" stroke="#4cad22" stroke-linecap="round" stroke-linejoin="round" d="M22.0001 6c-4.7338 0 -8.5714 8.9543 -8.5714 20s3.8376 20 8.5714 20c4.7339 0 8.5715 -8.9543 8.5715 -20 0 -0.3353 -0.0036 -0.6687 -0.0106 -1" stroke-width="3"></path>
    <path id="Star 11" stroke="#4cad22" d="M36.029 2.32233c0.1578 -0.44297 0.7842 -0.44297 0.942 0l0.3753 1.05364c1.2096 3.39591 3.8818 6.0681 7.2777 7.27773l1.0537 0.3753c0.4429 0.1578 0.4429 0.7842 0 0.942l-1.0537 0.3753c-3.3959 1.2096 -6.0681 3.8818 -7.2777 7.2777l-0.3753 1.0537c-0.1578 0.4429 -0.7842 0.4429 -0.942 0l-0.3753 -1.0537c-1.2096 -3.3959 -3.8818 -6.0681 -7.2777 -7.2777l-1.0537 -0.3753c-0.4429 -0.1578 -0.4429 -0.7842 0 -0.942l1.0537 -0.3753c3.3959 -1.20962 6.0681 -3.88183 7.2777 -7.27774z" stroke-width="3"></path>
  </g>
</svg>