<svg xmlns="http://www.w3.org/2000/svg" fill="none" viewBox="0 0 48 48" id="Briefcase-Dollar--Streamline-Plump-Gradient" height="48" width="48">
  <desc>
    Briefcase Dollar Streamline Icon: https://streamlinehq.com
  </desc>
  <g id="briefcase-dollar--briefcase-payment-cash-money-finance-baggage-bag">
    <path id="Union" fill="url(#paint0_linear_6582_4473)" fill-rule="evenodd" d="M21.26 5.20366C21.9415 5.0965 22.8693 5 24 5c1.1307 0 2.0585.0965 2.74.20366.2886.04537.5981.25341.7813.67756.3297.76334.7084 1.71129 1.0221 2.67401C27.142 8.51978 25.6298 8.5 24 8.5s-3.142.01978-4.5434.05523c.3137-.96272.6924-1.91067 1.0221-2.67401.1832-.42415.4927-.63219.7813-.67756Zm-6.0182 3.51903c.4235-1.65091 1.0813-3.30822 1.5648-4.4276.6581-1.52364 2.0246-2.75869 3.832-3.04288C21.5058 1.11586 22.642 1 24 1s2.4942.11586 3.3614.25221c1.8074.28419 3.1739 1.51924 3.832 3.04288.4835 1.11938 1.1413 2.77669 1.5648 4.4276 3.6189.20109 6.2454.50961 8.0842.80315 2.8607.45665 4.8003 2.77106 5.0758 5.52766.2764 2.767.5818 7.0455.5818 12.4465 0 5.401-.3054 9.6795-.5818 12.4465-.2755 2.7566-2.2151 5.071-5.0758 5.5277C37.7611 45.966 32.4681 46.5 24 46.5c-8.4681 0-13.7611-.534-16.84244-1.0258-2.86065-.4567-4.80029-2.7711-5.07572-5.5277C1.80539 37.1795 1.5 32.901 1.5 27.5c0-5.401.30539-9.6795.58184-12.4465.27543-2.7566 2.21508-5.07101 5.07572-5.52766 1.83886-.29354 4.46534-.60206 8.08424-.80315ZM24.0001 15.5c1.1045-.0001 2 .8953 2.0001 1.9999l.0001.6425c1.2171.1739 2.255.4834 3.0647.7933.6133.2347 1.1026.4721 1.4484.6574.1732.0927.3112.1729.4117.2337.0503.0304.0913.056.1227.076l.0399.0258.0145.0095.0059.0039.0026.0017.0012.0009c.0006.0003.0011.0007-1.1117 1.6625l1.1128-1.6618c.9178.6146 1.1636 1.8569.549 2.7747-.6122.9142-1.8471 1.1616-2.7638.5561l-.0012-.0007c-.0056-.0036-.0197-.0125-.042-.026-.0448-.0271-.1224-.0725-.2305-.1304-.2167-.1161-.5524-.2804-.9891-.4475-.8765-.3354-2.1319-.6715-3.6352-.6715h-.0001l0-6.5Zm0 6.5.0001 3.468-.0001 0 0-3.468Zm0 7.532c-.115-.0208-.2321-.0418-.3515-.0631l-.1435-.0256c-1.3913-.248-3.1177-.5557-4.4898-1.209-.7442-.3544-1.5132-.866-2.0965-1.6397-.6071-.8054-.9186-1.7705-.9186-2.8446 0-2.083 1.4417-3.5576 2.8521-4.3972.9267-.5516 2.0125-.9472 3.148-1.1631l-.0001-.6896c-.0001-1.1046.8953-2 1.9999-2.0001l0 6.5c-1.1746 0-2.3149.3216-3.1019.79-.8396.4998-.898.9001-.898.96 0 .2652.0635.3715.1127.4367.0729.0968.2415.2549.6222.4362.7678.3656 1.8525.5896 3.265.8451l0 4.064Zm.0001 0 0-4.064c.115.0208.2322.0418.3516.0631l.1435.0256c1.3913.248 3.1177.5557 4.4898 1.209.7443.3544 1.5132.866 2.0965 1.6397.6071.8054.9186 1.7705.9186 2.8446 0 2.083-1.4416 3.5576-2.852 4.3972-.9267.5515-2.0125.9471-3.1479 1.163l.0001.6897c0 1.1045-.8954 2-1.9999 2.0001-1.1046.0001-2.0001-.8953-2.0001-1.9999l-.0001-.6424c-1.2172-.174-2.2551-.4835-3.0649-.7934-.6133-.2347-1.1026-.4721-1.4484-.6574-.1731-.0927-.3112-.1729-.4117-.2337-.0503-.0304-.0913-.056-.1227-.076l-.0399-.0258-.0145-.0095-.0059-.0039-.0025-.0017-.0013-.0009c-.0005-.0003-.0011-.0007 1.1117-1.6625l-1.1128 1.6618c-.9178-.6146-1.1636-1.8569-.549-2.7747.6122-.9142 1.8471-1.1616 2.7638-.5561l.0013.0007c.0055.0036.0196.0125.0419.026.0448.0271.1224.0725.2305.1304.2167.1161.5524.2804.9891.4475.8765.3354 2.1319.6715 3.6351.6715l0-3.468.0001 0Zm0 0 0 3.468c1.1747 0 2.3151-.3216 3.102-.79.8396-.4998.898-.9001.898-.96 0-.2652-.0635-.3715-.1127-.4367-.0729-.0968-.2414-.2549-.6222-.4362-.7678-.3656-1.8526-.5896-3.2651-.8451Z" clip-rule="evenodd"></path>
  </g>
  <defs>
    <linearGradient id="paint0_linear_6582_4473" x1="8.856" x2="45.389" y1="9.75" y2="29.769" gradientUnits="userSpaceOnUse">
      <stop stop-color="#ffd600"></stop>
      <stop offset="1" stop-color="#00d078"></stop>
    </linearGradient>
  </defs>
</svg>