<svg xmlns="http://www.w3.org/2000/svg" fill="none" viewBox="0 0 48 48" height="48" width="48">
  <g id="chart-column--chart-column-bar-graph">
    <path id="Union" fill="url(#paint0_linear_12312_706)" fill-rule="evenodd" d="M5 3c0-1.10457-.89543-2-2-2s-2 .89543-2 2c0 16.3259.30176 32.3459.43665 38.6921.05678 2.671 2.2003 4.8145 4.87121 4.8712C12.6541 46.6982 28.6741 47 45 47c1.1046 0 2-.8954 2-2s-.8954-2-2-2c-16.2844 0-32.2718-.3011-38.60714-.4357-.52836-.0113-.94588-.4288-.95711-.9572C5.30109 35.2718 5 19.2844 5 3m19.5488 37.2669c.6452.132 1.4624.2331 2.4512.2331s1.806-.1011 2.4512-.2331c1.3532-.2768 2.0488-1.5277 2.0488-2.7676V24c0-7.1805-.0863-11.6025-.1428-13.7298-.0295-1.10936-.6397-2.23769-1.8654-2.51586C28.8624 7.61152 28.0383 7.5 27 7.5s-1.8624.11152-2.4918.25434c-1.2257.27817-1.8359 1.4065-1.8654 2.51586C22.5863 12.3976 22.5 16.8195 22.5 24v13.4993c0 1.2399.6956 2.4908 2.0488 2.7676m14.6524.1714c.5147.037 1.1144.0617 1.7988.0617s1.2841-.0247 1.7988-.0617c1.6416-.1183 2.7012-1.526 2.7012-3.0811V32c0-2.5571-.0437-4.4172-.0894-5.6636-.0518-1.412-1.0233-2.643-2.5102-2.7644-.5244-.0428-1.1552-.072-1.9004-.072s-1.376.0292-1.9004.072c-1.4869.1214-2.4584 1.3524-2.5102 2.7644C36.5437 27.5828 36.5 29.4429 36.5 32v5.3572c0 1.5551 1.0596 2.9628 2.7012 3.0811m-28.3435-.0708c.5884.0773 1.3026.1325 2.1423.1325s1.5539-.0552 2.1423-.1325c1.4963-.1967 2.3577-1.5266 2.3577-2.9147V28c0-4.787-.0681-7.9409-.1231-9.7058-.039-1.2542-.8128-2.4484-2.1762-2.6474C14.6183 15.5619 13.889 15.5 13 15.5s-1.6183.0619-2.2007.1468c-1.36339.199-2.1372 1.3932-2.17624 2.6474C8.56813 20.0591 8.5 23.213 8.5 28v9.4528c0 1.3881.86135 2.718 2.3577 2.9147" clip-rule="evenodd"></path>
  </g>
  <defs>
    <linearGradient id="paint0_linear_12312_706" x1="8.519" x2="45.672" y1="9.846" y2="30.431" gradientUnits="userSpaceOnUse">
      <stop stop-color="#ffd600"></stop>
      <stop offset="1" stop-color="#00d078"></stop>
    </linearGradient>
  </defs>
</svg>