<svg xmlns="http://www.w3.org/2000/svg" fill="none" viewBox="0 0 48 48" id="Hotel-One-Star--Streamline-Plump">
  <desc>
    Hotel One Star Streamline Icon: https://streamlinehq.com
  </desc>
  <g id="hotel-one-star--one-star-reviews-review-rating-hotel-star">
    <path id="Star 2" fill="#9cfa8f" d="M21.115 3.8323c1.2417 -2.3791 4.5283 -2.3791 5.77 0l5.3566 10.2629 11.033 2.1588c2.5472 0.4984 3.5591 3.7238 1.7837 5.6859l-7.723 8.5354 1.4436 11.6248c0.3327 2.679 -2.3224 4.677 -4.6688 3.5132L24 40.5987l-10.1102 5.0146c-2.3463 1.1638 -5.0015 -0.8342 -4.6688 -3.5131l1.4437 -11.6249 -7.7231 -8.5355c-1.7753 -1.962 -0.7634 -5.1874 1.7838 -5.6858l11.033 -2.1589L21.115 3.8323Z" stroke-width="3"></path>
    <path id="Star 1" stroke="#4cad22" stroke-linecap="round" stroke-linejoin="round" d="M21.115 3.8323c1.2417 -2.3791 4.5283 -2.3791 5.77 0l5.3566 10.2629 11.033 2.1588c2.5472 0.4984 3.5591 3.7238 1.7837 5.6859l-7.723 8.5354 1.4436 11.6248c0.3327 2.679 -2.3224 4.677 -4.6688 3.5132L24 40.5987l-10.1102 5.0146c-2.3463 1.1638 -5.0015 -0.8342 -4.6688 -3.5131l1.4437 -11.6249 -7.7231 -8.5355c-1.7753 -1.962 -0.7634 -5.1874 1.7838 -5.6858l11.033 -2.1589L21.115 3.8323Z" stroke-width="3"></path>
    <path id="Vector" stroke="#4cad22" stroke-linecap="round" stroke-linejoin="round" d="M24.1742 32.3627V17.728c0 2.0206 -1.638 3.6587 -3.6586 3.6587H19.296m9.7564 10.976H19.296" stroke-width="3"></path>
  </g>
</svg>