<svg xmlns="http://www.w3.org/2000/svg" fill="none" viewBox="0 0 48 48">
  <g id="mail-newsletter-paid-subscription--mail-newsletter-paid-subscription-dollar-business-contract">
    <path id="Rectangle 1099" fill="#9cfa8f" d="M3.42654 40.1078c0.23939 2.5169 2.24822 4.3492 4.77212 4.4986C11.423 44.7973 16.5914 45 24 45s12.577 -0.2027 15.8013 -0.3936c2.5239 -0.1494 4.5328 -1.9817 4.7722 -4.4986C44.7967 37.7605 45 34.3688 45 29.8c0 -5.7443 -0.3214 -9.6279 -0.5997 -11.9145 -0.2002 -1.6439 -1.2085 -3.0351 -2.6612 -3.8302C37.4814 11.7252 28.3152 7 24 7c-4.3152 0 -13.4814 4.7252 -17.73909 7.0553 -1.45275 0.7951 -2.46105 2.1863 -2.66119 3.8302C3.32135 20.1721 3 24.0557 3 29.8c0 4.5688 0.20328 7.9605 0.42654 10.3078Z" stroke-width="3"></path>
    <path id="Rectangle 1100" fill="#ffffff" d="M24 2c5.7048 0 9.558 0.48999 11.8225 0.91334 1.5545 0.29062 2.6005 1.61761 2.683 3.19688 0.1496 2.86314 0.3682 8.17288 0.483 16.29508 0.0279 1.9767 -0.9198 3.856 -2.6131 4.8762C32.8001 29.4355 27.6218 32 24 32c-3.6219 0 -8.8002 -2.5645 -12.3755 -4.7185 -1.69329 -1.0202 -2.64097 -2.8995 -2.61304 -4.8762 0.11478 -8.1222 0.33337 -13.43195 0.48296 -16.29508 0.08252 -1.57927 1.12858 -2.90627 2.68308 -3.19688C14.4419 2.48999 18.2951 2 24 2Z" stroke-width="3"></path>
    <path id="Rectangle 1097" stroke="#4cad22" stroke-linejoin="round" d="M38.7618 12.4723c1.1298 0.583 2.1455 1.1278 2.975 1.5818 1.4528 0.795 2.4633 2.1875 2.6635 3.8314C44.6786 20.1721 45 24.0557 45 29.8c0 4.5688 -0.2033 7.9605 -0.4265 10.3078 -0.2394 2.5169 -2.2483 4.3492 -4.7722 4.4986C36.577 44.7973 31.4086 45 24 45s-12.577 -0.2027 -15.80134 -0.3936c-2.5239 -0.1494 -4.53273 -1.9817 -4.77212 -4.4986C3.20328 37.7605 3 34.3688 3 29.8c0 -5.7443 0.32135 -9.6279 0.59972 -11.9145 0.20014 -1.6439 1.21067 -3.0364 2.66344 -3.8314 0.82957 -0.454 1.84526 -0.9988 2.97498 -1.5818" stroke-width="3"></path>
    <path id="Rectangle 1098" stroke="#4cad22" stroke-linejoin="round" d="M39.0262 25.5684c-0.097 -9.9261 -0.3525 -16.2388 -0.5207 -19.45818 -0.0825 -1.57927 -1.1285 -2.90626 -2.683 -3.19688C33.558 2.48999 29.7048 2 24 2c-5.7049 0 -9.5581 0.48999 -11.8225 0.91334 -1.5545 0.29061 -2.60056 1.61761 -2.68308 3.19688 -0.16821 3.21937 -0.42364 9.53208 -0.52065 19.45818" stroke-width="3"></path>
    <path id="Intersect" stroke="#4cad22" stroke-linecap="round" d="M3.22357 22.0001S18.3079 32 23.9999 32c5.692 0 20.7765 -10 20.7765 -10" stroke-width="3"></path>
    <path id="Vector" fill="#9cfa8f" d="M21.2063 8.75666s-3.7743 0.78925 -3.7743 4.51964c0 1.372 0.5015 2.5681 1.2962 3.5685 0.8711 1.1008 2.0891 1.4923 3.3935 2.0949 0 0 -1.3767 -0.3307 -2.2574 0.1697 -1.6913 0.961 -2.7808 2.9783 -0.5643 4.636 0.8398 0.6281 2.4757 1.1775 2.4757 1.1775 0 0.6075 0.0586 1.8459 0.6335 2.245 0.6058 0.4742 2.3088 0.5147 3.1817 0.3386 0.5708 -0.1152 1.2028 -0.622 1.2028 -1.2276v-1.356s3.7743 -0.7892 3.7743 -4.5196c0 -1.3721 -0.5015 -2.5681 -1.2962 -3.5685 -0.8711 -1.1008 -2.089 -1.4923 -3.3934 -2.0949 0 0 1.3766 0.3306 2.2573 -0.1698 1.6913 -0.961 2.7808 -2.9782 0.5644 -4.63588 -0.8399 -0.62812 -2.4758 -1.17756 -2.4758 -1.17756 0 -0.60744 -0.0585 -1.99865 -0.6334 -2.39772 -0.6058 -0.47426 -2.5576 -0.39965 -3.4305 -0.22352 -0.5708 0.11518 -0.9541 0.65963 -0.9541 1.26529v1.35595Z" stroke-width="3"></path>
    <path id="Vector_2" stroke="#4cad22" stroke-linecap="round" stroke-linejoin="round" d="m23.1441 13.7394 2.7343 1.0005m0 0s1.3766 0.3306 2.2573 -0.1698c1.6913 -0.961 2.7808 -2.9782 0.5644 -4.63588 -0.8399 -0.62812 -2.4758 -1.17756 -2.4758 -1.17756 0 -0.60744 -0.0585 -1.99865 -0.6334 -2.39772 -0.6058 -0.47426 -2.5576 -0.39965 -3.4305 -0.22352 -0.5708 0.11518 -0.9541 0.65963 -0.9541 1.26529v1.35595s-3.7743 0.78925 -3.7743 4.51964c0 1.372 0.5015 2.5681 1.2962 3.5685 0.8711 1.1008 2.0891 1.4923 3.3935 2.0949m3.7567 -4.1998c1.3044 0.6026 2.5223 0.9941 3.3934 2.0949 0.7947 1.0004 1.2962 2.1964 1.2962 3.5685 0 3.7304 -3.7743 4.5196 -3.7743 4.5196v1.356c0 0.6056 -0.632 1.1124 -1.2028 1.2276 -0.8729 0.1761 -2.5759 0.1356 -3.1817 -0.3386 -0.5749 -0.3991 -0.6335 -1.6375 -0.6335 -2.245 0 0 -1.6359 -0.5494 -2.4757 -1.1775 -2.2165 -1.6577 -1.127 -3.675 0.5643 -4.636 0.8807 -0.5004 2.2574 -0.1697 2.2574 -0.1697m2.7342 1.0005 -2.7342 -1.0005" stroke-width="3"></path>
  </g>
</svg>