<svg xmlns="http://www.w3.org/2000/svg" fill="none" viewBox="0 0 48 48" id="Number-Three-Circle--Streamline-Plump">
  <desc>
    Number Three Circle Streamline Icon: https://streamlinehq.com
  </desc>
  <g id="Duotone/Interface Essential/Mathematics/number-three-circle--number-three-circle-mathematics-equation-text">
    <path id="Ellipse 19" fill="#9cfa8f" d="M24 46C11.8497 46 1.99999 36.1503 1.99999 24S11.8497 2 24 2s22 9.8497 22 22 -9.8497 22 -22 22Z" stroke-width="3"></path>
    <path id="Ellipse 20" stroke="#4cad22" stroke-linejoin="round" d="M24 46C11.8497 46 2 36.1503 2 24 1.99999 11.8497 11.8497 2 24 2s22 9.8497 22 22 -9.8497 22 -22 22Z" stroke-width="3"></path>
    <path id="Union" fill="#ffffff" d="m25.8418 10.5 -2.625 0c-3.5803 0.0001 -6.591 2.406 -7.518 5.6835l-0.0202 0.075c-0.3366 1.2516 -0.0468 2.6381 1.1078 3.227 0.2903 0.1481 0.6182 0.287 0.9827 0.4012 0.3962 0.1242 0.7766 0.1913 1.1275 0.221 1.2796 0.1082 2.2164 -0.9555 2.55 -2.1957l0.0257 -0.0955c0.2156 -0.7623 0.9193 -1.3165 1.7446 -1.3165l2.625 0c1.001 0 1.8125 0.8115 1.8125 1.8125 0 1.7701 -0.8115 2.1495 -1.8125 2.1495 -0.6958 0 -1.3532 0.3448 -1.5587 1.0096 -0.1517 0.4905 -0.2833 1.1564 -0.2833 1.9904 0 0.6147 0.0715 1.1381 0.1698 1.5673 0.2168 0.9457 1.1394 1.4327 2.1096 1.4327 1.2427 0 2.25 1.0073 2.25 2.25l0 0.538c0 1.2426 -1.0073 2.25 -2.2499 2.25l-3.5 0c-0.975 0 -1.8125 -0.6218 -2.1228 -1.4998l-0.0693 -0.1818c-0.4001 -1.0493 -1.2379 -1.9429 -2.3605 -1.9129 -0.4317 0.0116 -0.9112 0.0834 -1.3984 0.2659 -0.4354 0.1631 -0.8202 0.3845 -1.1499 0.6207 -0.9992 0.7156 -1.1168 2.0592 -0.6789 3.2076 1.1311 3.2002 4.183 5.5003 7.7798 5.5003l3.5 0c4.5563 0 8.2499 -3.6937 8.2499 -8.25l0 -0.875c0 -2.1865 -0.8506 -4.1744 -2.239 -5.6507 0.8606 -1.2554 1.3641 -2.7748 1.3641 -4.4118 0 -4.3148 -3.4978 -7.8125 -7.8126 -7.8125Z" stroke-width="3"></path>
    <path id="Union_2" stroke="#4cad22" stroke-linejoin="round" d="m25.8418 10.5 -2.625 0c-3.5803 0.0001 -6.591 2.406 -7.518 5.6835l-0.0202 0.075c-0.3366 1.2516 -0.0468 2.6381 1.1078 3.227 0.2903 0.1481 0.6182 0.287 0.9827 0.4012 0.3962 0.1242 0.7766 0.1913 1.1275 0.221 1.2796 0.1082 2.2164 -0.9555 2.55 -2.1957l0.0257 -0.0955c0.2156 -0.7623 0.9193 -1.3165 1.7446 -1.3165l2.625 0c1.001 0 1.8125 0.8115 1.8125 1.8125 0 1.7701 -0.8115 2.1495 -1.8125 2.1495 -0.6958 0 -1.3532 0.3448 -1.5587 1.0096 -0.1517 0.4905 -0.2833 1.1564 -0.2833 1.9904 0 0.6147 0.0715 1.1381 0.1698 1.5673 0.2168 0.9457 1.1394 1.4327 2.1096 1.4327 1.2427 0 2.25 1.0073 2.25 2.25l0 0.538c0 1.2426 -1.0073 2.25 -2.2499 2.25l-3.5 0c-0.975 0 -1.8125 -0.6218 -2.1228 -1.4998l-0.0693 -0.1818c-0.4001 -1.0493 -1.2379 -1.9429 -2.3605 -1.9129 -0.4317 0.0116 -0.9112 0.0834 -1.3984 0.2659 -0.4354 0.1631 -0.8202 0.3845 -1.1499 0.6207 -0.9992 0.7156 -1.1168 2.0592 -0.6789 3.2076 1.1311 3.2002 4.183 5.5003 7.7798 5.5003l3.5 0c4.5563 0 8.2499 -3.6937 8.2499 -8.25l0 -0.875c0 -2.1865 -0.8506 -4.1744 -2.239 -5.6507 0.8606 -1.2554 1.3641 -2.7748 1.3641 -4.4118 0 -4.3148 -3.4978 -7.8125 -7.8126 -7.8125Z" stroke-width="3"></path>
  </g>
</svg>