<svg xmlns="http://www.w3.org/2000/svg" fill="none" viewBox="0 0 48 48" id="Number-One-Circle--Streamline-Plump">
  <desc>
    Number One Circle Streamline Icon: https://streamlinehq.com
  </desc>
  <g id="Duotone/Interface Essential/Mathematics/number-one-circle--number-one-circle-mathematics-equation-text">
    <path id="Ellipse 19" fill="#9cfa8f" d="M24 46C11.8497 46 1.99999 36.1503 1.99999 24S11.8497 2 24 2s22 9.8497 22 22 -9.8497 22 -22 22Z" stroke-width="3"></path>
    <path id="Ellipse 20" stroke="#4cad22" stroke-linejoin="round" d="M24 46C11.8497 46 2 36.1503 2 24 1.99999 11.8497 11.8497 2 24 2s22 9.8497 22 22 -9.8497 22 -22 22Z" stroke-width="3"></path>
    <path id="Union" fill="#ffffff" d="M27.5 11.3284c0 -0.5304 -0.212 -1.0477 -0.682 -1.2936C26.3191 9.77374 25.5464 9.5 24.5 9.5s-1.8191 0.27374 -2.318 0.5348c-0.47 0.2459 -0.682 0.7632 -0.682 1.2936v1.3391c-0.0006 1.8405 -1.4927 3.3323 -3.3333 3.3323l-1.3382 0c-0.5305 0 -1.0478 0.2121 -1.2937 0.6821 -0.2611 0.499 -0.5348 1.2716 -0.5348 2.3179 0 1.0463 0.2737 1.819 0.5348 2.3179 0.2459 0.4701 0.7632 0.6821 1.2937 0.6821l1.3382 0c1.1744 0 2.2981 -0.2169 3.3333 -0.6128l0 10.113h-4.2574c-0.7956 0 -1.5825 0.3211 -1.8818 1.0583C15.1649 33.0406 15 33.6879 15 34.5s0.1649 1.4594 0.3608 1.9417c0.2993 0.7372 1.0862 1.0583 1.8818 1.0583h14.5148c0.7956 0 1.5825 -0.3211 1.8818 -1.0583 0.1959 -0.4823 0.3608 -1.1296 0.3608 -1.9417s-0.1649 -1.4594 -0.3608 -1.9417c-0.2993 -0.7372 -1.0862 -1.0583 -1.8818 -1.0583H27.5l0 -20.1716Z" stroke-width="3"></path>
    <path id="Union_2" stroke="#4cad22" stroke-linejoin="round" d="M27.5 11.3284c0 -0.5304 -0.212 -1.0477 -0.682 -1.2936C26.3191 9.77374 25.5464 9.5 24.5 9.5s-1.8191 0.27374 -2.318 0.5348c-0.47 0.2459 -0.682 0.7632 -0.682 1.2936v1.3391c-0.0006 1.8405 -1.4927 3.3323 -3.3333 3.3323l-1.3382 0c-0.5305 0 -1.0478 0.2121 -1.2937 0.6821 -0.2611 0.499 -0.5348 1.2716 -0.5348 2.3179 0 1.0463 0.2737 1.819 0.5348 2.3179 0.2459 0.4701 0.7632 0.6821 1.2937 0.6821l1.3382 0c1.1744 0 2.2981 -0.2169 3.3333 -0.6128l0 10.113h-4.2574c-0.7956 0 -1.5825 0.3211 -1.8818 1.0583C15.1649 33.0406 15 33.6879 15 34.5s0.1649 1.4594 0.3608 1.9417c0.2993 0.7372 1.0862 1.0583 1.8818 1.0583h14.5148c0.7956 0 1.5825 -0.3211 1.8818 -1.0583 0.1959 -0.4823 0.3608 -1.1296 0.3608 -1.9417s-0.1649 -1.4594 -0.3608 -1.9417c-0.2993 -0.7372 -1.0862 -1.0583 -1.8818 -1.0583H27.5l0 -20.1716Z" stroke-width="3"></path>
  </g>
</svg>