<svg xmlns="http://www.w3.org/2000/svg" fill="none" viewBox="0 0 48 48" id="Number-Two-Circle--Streamline-Plump">
  <desc>
    Number Two Circle Streamline Icon: https://streamlinehq.com
  </desc>
  <g id="Duotone/Interface Essential/Mathematics/number-two-circle--number-two-circle-mathematics-equation-text">
    <path id="Ellipse 19" fill="#9cfa8f" d="M24 46C11.8497 46 1.99999 36.1503 1.99999 24S11.8497 2 24 2s22 9.8497 22 22 -9.8497 22 -22 22Z" stroke-width="3"></path>
    <path id="Ellipse 20" stroke="#4cad22" stroke-linejoin="round" d="M24 46C11.8497 46 2 36.1503 2 24 1.99999 11.8497 11.8497 2 24 2s22 9.8497 22 22 -9.8497 22 -22 22Z" stroke-width="3"></path>
    <path id="Union" fill="#ffffff" d="M22.6742 10.5039c-3.5702 0 -6.3366 2.5151 -7.315 5.5906l-0.092 0.4082c-0.2054 0.9115 -0.1003 1.9022 0.6085 2.5111 0.3587 0.3081 0.831 0.6208 1.433 0.8489 0.5347 0.2027 1.0669 0.2642 1.5449 0.2535 1.1752 -0.0263 1.9649 -1.0561 2.2233 -2.2029 0.319 -1.0026 1.0529 -1.4094 1.5973 -1.4094h3.2726c0.5955 0 1.6024 0.6413 1.6024 2.1138 0 1.0142 -0.5396 1.7295 -1.0692 1.987l-7.0112 3.4082c-2.8654 1.3929 -4.5196 4.4046 -4.5196 7.5079 0 0.9405 0.0408 1.8329 0.0966 2.6142 0.1228 1.7192 1.4653 3.0382 3.1843 3.1644 1.4735 0.1081 3.4949 0.2045 6.0191 0.2045l6.9767 0c1.0947 0 2.0933 -0.6202 2.2399 -1.7051 0.0502 -0.3711 0.0834 -0.8027 0.0834 -1.2949 0 -0.4922 -0.0332 -0.9238 -0.0834 -1.2949 -0.1466 -1.0849 -1.1461 -1.7051 -2.2408 -1.7051H20.9493c0.0059 -1.0595 0.5714 -1.8171 1.1426 -2.0948l7.0112 -3.4082c2.8208 -1.3712 4.4461 -4.334 4.4461 -7.3832 0 -4.176 -3.1142 -8.1138 -7.6024 -8.1138h-3.2726Z" stroke-width="3"></path>
    <path id="Union_2" stroke="#4cad22" stroke-linejoin="round" d="M22.6742 10.5039c-3.5702 0 -6.3366 2.5151 -7.315 5.5906l-0.092 0.4082c-0.2054 0.9115 -0.1003 1.9022 0.6085 2.5111 0.3587 0.3081 0.831 0.6208 1.433 0.8489 0.5347 0.2027 1.0669 0.2642 1.5449 0.2535 1.1752 -0.0263 1.9649 -1.0561 2.2233 -2.2029 0.319 -1.0026 1.0529 -1.4094 1.5973 -1.4094h3.2726c0.5955 0 1.6024 0.6413 1.6024 2.1138 0 1.0142 -0.5396 1.7295 -1.0692 1.987l-7.0112 3.4082c-2.8654 1.3929 -4.5196 4.4046 -4.5196 7.5079 0 0.9405 0.0408 1.8329 0.0966 2.6142 0.1228 1.7192 1.4653 3.0382 3.1843 3.1644 1.4735 0.1081 3.4949 0.2045 6.0191 0.2045l6.9767 0c1.0947 0 2.0933 -0.6202 2.2399 -1.7051 0.0502 -0.3711 0.0834 -0.8027 0.0834 -1.2949 0 -0.4922 -0.0332 -0.9238 -0.0834 -1.2949 -0.1466 -1.0849 -1.1461 -1.7051 -2.2408 -1.7051H20.9493c0.0059 -1.0595 0.5714 -1.8171 1.1426 -2.0948l7.0112 -3.4082c2.8208 -1.3712 4.4461 -4.334 4.4461 -7.3832 0 -4.176 -3.1142 -8.1138 -7.6024 -8.1138h-3.2726Z" stroke-width="3"></path>
  </g>
</svg>