<svg xmlns="http://www.w3.org/2000/svg" fill="none" viewBox="0 0 48 48" id="Phone-Star--Streamline-Plump">
  <desc>
    Phone Star Streamline Icon: https://streamlinehq.com
  </desc>
  <g id="Duotone/Phone/Mobile Phone/phone-star">
    <path id="Star 4" fill="#ffffff" d="M10.6685 3.5672c0.5597 -1.07915 2.1033 -1.07915 2.663 0l2.2716 4.37959 4.805 0.94612c1.1424 0.22493 1.6041 1.60889 0.8257 2.47469L17.83 15.1531l0.626 5.0728c0.1466 1.1875 -1.088 2.0602 -2.1586 1.5258L12 19.6068l-4.29745 2.1449c-1.07056 0.5344 -2.30512 -0.3383 -2.15858 -1.5258L6.17 15.1531l-3.40376 -3.7855c-0.77845 -0.8658 -0.31672 -2.24976 0.82562 -2.47469l4.805 -0.94612L10.6685 3.5672Z" stroke-width="3"></path>
    <path id="Star 5" stroke="#4cad22" stroke-linejoin="round" d="M10.6685 3.5672c0.5597 -1.07915 2.1033 -1.07915 2.663 0l2.2716 4.37959 4.805 0.94612c1.1424 0.22493 1.6041 1.60889 0.8257 2.47469L17.83 15.1531l0.626 5.0728c0.1466 1.1875 -1.088 2.0602 -2.1586 1.5258L12 19.6068l-4.29745 2.1449c-1.07056 0.5344 -2.30512 -0.3383 -2.15858 -1.5258L6.17 15.1531l-3.40376 -3.7855c-0.77845 -0.8658 -0.31672 -2.24976 0.82562 -2.47469l4.805 -0.94612L10.6685 3.5672Z" stroke-width="3"></path>
    <path id="Union" fill="#9cfa8f" d="M45 13c0 -5.52285 -4.4772 -10 -10 -10h-0.5689c-1.2267 0 -2.3298 0.74685 -2.7854 1.88583l-2.4661 6.16527c-0.5943 1.4856 -0.246 3.1825 0.8855 4.314l3.0765 3.0765c0.4933 0.4933 0.7011 1.2108 0.4984 1.8784 -1.9331 6.3654 -6.9546 11.3869 -13.32 13.32 -0.6676 0.2027 -1.3851 -0.0051 -1.8785 -0.4985l-3.0764 -3.0764c-1.1315 -1.1315 -2.8284 -1.4798 -4.314 -0.8855l-6.16527 2.4661C3.74685 32.1013 3 33.2044 3 34.4311V35c0 5.5229 4.47715 10 10 10h0.5c17.1102 0 31.0342 -13.6419 31.4886 -30.6424 0.0001 -0.0048 0.0021 -0.0093 0.0057 -0.0124 0.0036 -0.0033 0.0057 -0.008 0.0057 -0.0129V13Z" stroke-width="3"></path>
    <path id="Union_2" stroke="#4cad22" stroke-linejoin="round" d="M45 13c0 -5.52285 -4.4772 -10 -10 -10h-0.5689c-1.2267 0 -2.3298 0.74685 -2.7854 1.88583l-2.4661 6.16527c-0.5943 1.4856 -0.246 3.1825 0.8855 4.314l3.0765 3.0765c0.4933 0.4933 0.7011 1.2108 0.4984 1.8784 -1.9331 6.3654 -6.9546 11.3869 -13.32 13.32 -0.6676 0.2027 -1.3851 -0.0051 -1.8785 -0.4985l-3.0764 -3.0764c-1.1315 -1.1315 -2.8284 -1.4798 -4.314 -0.8855l-6.16527 2.4661C3.74685 32.1013 3 33.2044 3 34.4311V35c0 5.5229 4.47715 10 10 10h0.5c17.1102 0 31.0342 -13.6419 31.4886 -30.6424 0.0001 -0.0048 0.0021 -0.0093 0.0057 -0.0124 0.0036 -0.0033 0.0057 -0.008 0.0057 -0.0129V13Z" stroke-width="3"></path>
  </g>
</svg>