<svg xmlns="http://www.w3.org/2000/svg" fill="none" viewBox="0 0 48 48" id="Tag-New-Square--Streamline-Plump">
  <desc>
    Tag New Square Streamline Icon: https://streamlinehq.com
  </desc>
  <g id="Duotone/Money Shopping/Building-Store/tag-new-square">
    <path id="Rectangle 722" fill="#9cfa8f" d="M2.54165 10.368c0.21787 -2.55022 2.15437 -4.52891 4.70388 -4.75521C10.5824 5.3166 16.0165 5 24 5c7.9835 0 13.4176 0.3166 16.7545 0.61279 2.5495 0.2263 4.486 2.20498 4.7039 4.75521 0.263 3.0795 0.5416 7.733 0.5416 13.6319s-0.2786 10.5525 -0.5417 13.6321c-0.2178 2.5502 -2.1543 4.5289 -4.7038 4.7552C37.4176 42.6834 31.9835 43 24 43c-7.9835 0 -13.4176 -0.3166 -16.75446 -0.6128 -2.54952 -0.2263 -4.48601 -2.205 -4.70388 -4.7552C2.27857 34.5524 2 29.8988 2 23.9999c0 -5.8989 0.27857 -10.5524 0.54165 -13.6319Z" stroke-width="3"></path>
    <path id="Rectangle 723" stroke="#4cad22" stroke-linejoin="round" d="M2.54165 10.368c0.21787 -2.55022 2.15437 -4.52891 4.70388 -4.75521C10.5824 5.3166 16.0165 5 24 5c7.9835 0 13.4176 0.3166 16.7545 0.61279 2.5495 0.2263 4.486 2.20498 4.7039 4.75521 0.263 3.0795 0.5416 7.733 0.5416 13.6319s-0.2786 10.5525 -0.5417 13.6321c-0.2178 2.5502 -2.1543 4.5289 -4.7038 4.7552C37.4176 42.6834 31.9835 43 24 43c-7.9835 0 -13.4176 -0.3166 -16.75446 -0.6128 -2.54952 -0.2263 -4.48601 -2.205 -4.70388 -4.7552C2.27857 34.5524 2 29.8988 2 23.9999c0 -5.8989 0.27857 -10.5524 0.54165 -13.6319Z" stroke-width="3"></path>
    <path id="Vector 1" stroke="#4cad22" stroke-linecap="round" stroke-linejoin="round" d="M9.75 30.0007V18.0859l5.4158 11.9148V18.0859" stroke-width="3"></path>
    <path id="Vector 3" stroke="#4cad22" stroke-linecap="round" stroke-linejoin="round" d="m29.5015 17.9993 1.8522 11.642c0.025 0.1571 0.1605 0.2728 0.3196 0.2728v0c0.1543 0 0.2871 -0.1089 0.3174 -0.2602l2.0612 -10.3059c0.0308 -0.1544 0.1664 -0.2656 0.3239 -0.2656v0c0.1574 0 0.293 0.1112 0.3238 0.2656l2.0612 10.3059c0.0303 0.1513 0.1631 0.2602 0.3174 0.2602v0c0.1591 0 0.2947 -0.1157 0.3197 -0.2728l1.8521 -11.642" stroke-width="3"></path>
    <path id="Vector 2" stroke="#4cad22" stroke-linecap="round" stroke-linejoin="round" d="m25.5799 18.0859 -5.4158 0 0 11.9148h5.4158m-5.4158 -6.4989h4.3326" stroke-width="3"></path>
  </g>
</svg>